<svg width="497" height="176" viewBox="0 0 497 176" fill="none" xmlns="http://www.w3.org/2000/svg">
<path d="M104.474 4.61451L69.3357 122.159L55.5315 69.4525C71.985 69.4525 85.2314 74.0539 95.2708 83.2567C105.589 92.4595 110.748 105.288 110.748 121.741C110.748 137.916 105.45 150.883 94.8525 160.644C84.5342 170.404 71.4272 175.285 55.5315 175.285C39.6357 175.285 26.3893 170.404 15.7921 160.644C5.47379 150.883 0.314642 137.916 0.314642 121.741C0.314642 117.279 0.593515 112.817 1.15126 108.355C1.98788 103.893 3.52168 98.4552 5.75266 92.0411C8.26252 85.6271 11.8879 77.2609 16.6287 66.9426L45.9104 4.61451H104.474ZM225.783 4.61451L190.645 122.159L176.841 69.4525C193.295 69.4525 206.541 74.0539 216.581 83.2567C226.899 92.4595 232.058 105.288 232.058 121.741C232.058 137.916 226.759 150.883 216.162 160.644C205.844 170.404 192.737 175.285 176.841 175.285C160.945 175.285 147.699 170.404 137.102 160.644C126.783 150.883 121.624 137.916 121.624 121.741C121.624 117.279 121.903 112.817 122.461 108.355C123.298 103.893 124.831 98.4552 127.062 92.0411C129.572 85.6271 133.198 77.2609 137.938 66.9426L167.22 4.61451H225.783ZM271.301 171.102L306.439 53.5567L320.243 106.264C304.068 106.264 290.822 101.662 280.503 92.4595C270.185 82.9778 265.026 70.1496 265.026 53.975C265.026 37.5215 270.185 24.5539 280.503 15.0723C291.101 5.3117 304.347 0.431418 320.243 0.431418C336.139 0.431418 349.246 5.3117 359.564 15.0723C370.161 24.5539 375.46 37.5215 375.46 53.975C375.46 58.437 375.041 62.8989 374.205 67.3609C373.647 71.8229 372.253 77.2609 370.022 83.675C367.791 89.8102 364.165 98.1764 359.146 108.774L329.864 171.102H271.301ZM392.61 171.102L427.748 53.5567L441.552 106.264C425.378 106.264 412.131 101.662 401.813 92.4595C391.495 82.9778 386.336 70.1496 386.336 53.975C386.336 37.5215 391.495 24.5539 401.813 15.0723C412.41 5.3117 425.657 0.431418 441.552 0.431418C457.448 0.431418 470.555 5.3117 480.874 15.0723C491.471 24.5539 496.769 37.5215 496.769 53.975C496.769 58.437 496.351 62.8989 495.514 67.3609C494.957 71.8229 493.562 77.2609 491.331 83.675C489.1 89.8102 485.475 98.1764 480.455 108.774L451.174 171.102H392.61Z" fill="#CACACA" fill-opacity="0.28"/>
</svg>
